# xmcd
#
# Track frame offsets:
#	150
#	10950
#	24246
#	36593
#	48671
#	61395
#	71445
#	80020
#	91187
#	103930
#	114797
#	127943
#	139910
#	150207
#	161370
#	171132
#
# Disc length: 2456 seconds
# Revision: 3
# Processed by: cddbd v1.5.2PL0 Copyright (c) Steve Scherf et al.
# Submitted via: dBpowerAMP V12.0
#
DISCID=c6099610
DTITLE=Various Artist - Country [Disc 2}
DYEAR=2004
DGENRE=Country
TTITLE0=Hank Williams - Let's Turn Back The Years
TTITLE1=Don Williams - Ruby Tuesday
TTITLE2=Porter Wagoner - He Really Must Have Loved You
TTITLE3=Merle Haggard - Everybody's Had The Blues
TTITLE4=Ernest Tubb - Have You Ever Been Lonely?
TTITLE5=Jim Reeves - Just Call Me Lonesome
TTITLE6=Buck Owens - Why Don't Mommy Stay With Daddy And Me?
TTITLE7=Willie Nelson - Suffering In Silence
TTITLE8=Bill Monroe - I'm Blue, I'm Lonesome
TTITLE9=Mary Miller - Husbands And Wives
TTITLE10=Hank Locklin - Happy Birthday To Me
TTITLE11=Jerry Lee Lewis - I Know What It Means
TTITLE12=Tanya Tucker - I'm Leaving It All Up To You
TTITLE13=Patsy Cline - Just Out Of Reach
TTITLE14=Johnny Cash - Ballad Of A Teenage Queen
TTITLE15=Eddy Arnold - Who At My Door Is Standing?
EXTD=
EXTT0=
EXTT1=
EXTT2=
EXTT3=
EXTT4=
EXTT5=
EXTT6=
EXTT7=
EXTT8=
EXTT9=
EXTT10=
EXTT11=
EXTT12=
EXTT13=
EXTT14=
EXTT15=
PLAYORDER=
